<?xml version="1.0" encoding="UTF-8"?>
<svg width="120" height="120" viewBox="0 0 120 120" fill="none" xmlns="http://www.w3.org/2000/svg">
  <!-- Gradient background -->
  <defs>
    <linearGradient id="grad" x1="0%" y1="0%" x2="100%" y2="100%">
      <stop offset="0%" stop-color="#2D83EC" />
      <stop offset="100%" stop-color="#1AC9FF" />
    </linearGradient>
  </defs>
  
  <!-- Circular background -->
  <circle cx="60" cy="60" r="60" fill="url(#grad)"/>
  
  <!-- Book icon - white outline -->
  <path d="M35 36C35 33.2386 37.2386 31 40 31H80C82.7614 31 85 33.2386 85 36V84C85 86.7614 82.7614 89 80 89H40C37.2386 89 35 86.7614 35 84V36Z" stroke="white" stroke-width="4" fill="none"/>
  
  <!-- Book pages -->
  <path d="M45 36V84H75C77.7614 84 80 81.7614 80 79V41C80 38.2386 77.7614 36 75 36H45Z" fill="white" fill-opacity="0.9"/>
  
  <!-- TON diamond logo -->
  <path d="M60 44L50 53L60 75L70 53L60 44Z" fill="#1AC9FF" stroke="white" stroke-width="1.5"/>
  
  <!-- Text lines -->
  <rect x="50" y="60" width="20" height="2" rx="1" fill="#2D83EC"/>
  <rect x="50" y="65" width="15" height="2" rx="1" fill="#2D83EC"/>
  <rect x="50" y="70" width="18" height="2" rx="1" fill="#2D83EC"/>
</svg>